<svg width="147" height="35" viewBox="0 0 147 35" fill="none" xmlns="http://www.w3.org/2000/svg">
<path d="M11.0016 12.472C11.0016 13.2976 10.2144 14.3152 8.64 15.5248C7.0848 16.7152 5.5488 17.3872 4.032 17.5408C5.3184 18.1168 6.4992 19.048 7.5744 20.3344C8.6688 21.6016 9.216 22.6768 9.216 23.56C9.216 23.848 9.1488 24.1072 9.0144 24.3376C8.88 24.5488 8.6688 24.7312 8.3808 24.8848C8.3808 23.4832 7.536 22.0048 5.8464 20.4496C4.1568 18.8944 2.2944 18.1168 0.2592 18.1168C0.3168 17.8672 0.5184 17.6272 0.864 17.3968C1.2288 17.1664 1.6224 17.0512 2.0448 17.0512C4.0608 17.0512 5.9136 16.36 7.6032 14.9776C9.312 13.5952 10.1664 12.3088 10.1664 11.1184C10.224 11.1376 10.3008 11.1664 10.3968 11.2048C10.4928 11.2432 10.6176 11.3776 10.7712 11.608C10.9248 11.8384 11.0016 12.1264 11.0016 12.472ZM16.7745 26.1808C16.7745 27.6016 17.5233 28.456 19.0209 28.744C19.3089 28.8016 19.6353 28.8304 20.0001 28.8304C22.4001 28.8304 24.3009 28.0528 25.7025 26.4976C27.1041 24.9616 27.8049 23.0224 27.8049 20.68C27.8049 19.7584 27.6321 18.9136 27.2865 18.1456C26.9601 17.3584 26.5473 16.7152 26.0481 16.216C25.5489 15.6976 25.0017 15.1792 24.4065 14.6608C23.8305 14.1424 23.2929 13.672 22.7937 13.2496C22.2945 12.8272 21.8721 12.3184 21.5265 11.7232C21.2001 11.128 21.0369 10.4944 21.0369 9.8224C21.0369 8.056 21.8241 6.4336 23.3985 4.9552C24.9921 3.4576 26.7009 2.7088 28.5249 2.7088C28.8897 2.7088 29.1585 2.8432 29.3313 3.112C29.5041 3.3808 29.5905 3.6496 29.5905 3.9184L29.5617 4.2928C29.4273 4.216 29.0913 4.1776 28.5537 4.1776C27.3249 4.1776 26.1345 4.7536 24.9825 5.9056C23.8305 7.0576 23.2545 8.392 23.2545 9.9088C23.2545 10.5232 23.4177 11.128 23.7441 11.7232C24.0897 12.2992 24.5121 12.808 25.0113 13.2496C25.5105 13.6912 26.0481 14.1904 26.6241 14.7472C27.2001 15.2848 27.7377 15.8224 28.2369 16.36C28.7361 16.8784 29.1489 17.5216 29.4753 18.2896C29.8209 19.0384 29.9937 19.8352 29.9937 20.68C29.9937 23.0032 29.0337 25.0672 27.1137 26.872C25.1937 28.6768 22.8225 29.5792 20.0001 29.5792C17.6193 29.5792 16.1121 28.8112 15.4785 27.2752C14.9793 26.008 15.1713 24.6064 16.0545 23.0704C16.9377 21.5344 18.2145 20.4976 19.8849 19.96C20.4993 19.768 21.0465 19.672 21.5265 19.672C22.0065 19.672 22.3329 19.7584 22.5057 19.9312C22.6977 20.0848 22.8225 20.3344 22.8801 20.68C21.0753 20.68 19.5297 21.4096 18.2433 22.8688C17.2641 23.9632 16.7745 25.0672 16.7745 26.1808ZM30.1377 10.2544C30.1377 10.3504 30.0417 10.3984 29.8497 10.3984C29.6769 10.3984 29.5137 10.36 29.3601 10.2832C29.2065 10.2064 29.1297 10.1008 29.1297 9.9664C29.1297 8.008 29.3505 6.4336 29.7921 5.2432C30.2337 4.0528 30.8193 3.4576 31.5489 3.4576C31.7409 3.4576 31.9041 3.5248 32.0385 3.6592C32.1729 3.7936 32.2401 3.9664 32.2401 4.1776C31.3761 5.0416 30.7521 6.3376 30.3681 8.0656C30.2145 8.7568 30.1377 9.4864 30.1377 10.2544ZM38.2025 22.3504C38.2025 23.5024 38.5097 24.0784 39.1241 24.0784C39.9113 24.0784 40.7753 23.0224 41.7161 20.9104C42.8105 18.4912 43.3577 16.2256 43.3577 14.1136C43.3577 12.6736 42.9737 11.9536 42.2057 11.9536C41.4569 11.9536 40.6313 12.5392 39.7289 13.7104C38.8265 14.8816 38.0201 16.2448 37.3097 17.8C36.6185 19.336 36.0233 20.7952 35.5241 22.1776C35.0249 23.5408 34.7177 24.5488 34.6025 25.2016C34.5065 25.8736 34.4297 26.3728 34.3721 26.6992C34.3145 27.0448 34.2185 27.5824 34.0841 28.312C33.9689 29.0416 33.8537 29.5984 33.7385 29.9824C33.6425 30.3664 33.5081 30.8464 33.3353 31.4224C33.1625 32.0176 32.9801 32.4688 32.7881 32.776C32.6153 33.1024 32.4137 33.4288 32.1833 33.7552C31.7225 34.3888 31.1369 34.7056 30.4265 34.7056C29.5049 34.7056 29.0441 34.1776 29.0441 33.1216C29.0441 31.24 30.4841 27.6976 33.3641 22.4944C33.6521 20.3824 33.9497 18.6736 34.2569 17.368C34.9289 14.2768 35.6393 11.8864 36.3881 10.1968C37.1561 8.488 37.8473 7.6336 38.4617 7.6336C38.7689 7.6336 38.9225 7.816 38.9225 8.1808C38.0009 10.6192 37.0505 13.7104 36.0713 17.4544L35.8985 18.1168H36.2729C38.4617 13.3552 40.5257 10.9744 42.4649 10.9744C44.2697 10.9744 45.1721 12.4048 45.1721 15.2656C45.1721 17.3392 44.6441 19.4128 43.5881 21.4864C42.4169 23.8288 41.0153 25 39.3833 25C38.0585 25 37.3961 24.136 37.3961 22.408C37.3961 21.4864 37.6457 20.4304 38.1449 19.24C38.6633 18.0304 39.3353 17.1376 40.1609 16.5616C40.3337 16.4656 40.4777 16.504 40.5929 16.6768C40.6121 16.7728 40.6025 16.84 40.5641 16.8784C39.8345 17.4544 39.2585 18.2992 38.8361 19.4128C38.4137 20.5264 38.2025 21.5056 38.2025 22.3504ZM29.8217 32.8624C29.8217 33.4384 30.0329 33.7264 30.4553 33.7264C31.3193 33.7264 31.9625 32.5552 32.3849 30.2128C32.5385 29.4064 32.8073 27.3712 33.1913 24.1072C31.4441 27.4864 30.3593 30.1072 29.9369 31.9696C29.8601 32.3152 29.8217 32.6128 29.8217 32.8624ZM49.0715 25C47.4971 25 46.7099 23.7616 46.7099 21.2848C46.7099 19.8064 47.0747 18.184 47.8043 16.4176C48.8219 13.9408 50.1563 12.2512 51.8075 11.3488C52.5179 10.9648 53.1803 10.7728 53.7947 10.7728C54.4091 10.7728 54.8891 10.9072 55.2347 11.176C55.5995 11.4448 55.8299 11.7136 55.9259 11.9824L56.0987 12.3568C56.0411 12.6832 55.8779 12.8464 55.6091 12.8464C55.3019 12.8464 55.1195 12.7792 55.0619 12.6448C55.0235 12.4912 54.9755 12.3664 54.9179 12.2704C54.8603 12.1552 54.7259 12.0112 54.5147 11.8384C54.3035 11.6464 54.0635 11.5504 53.7947 11.5504C52.5467 11.5504 51.4139 12.6736 50.3963 14.92C49.2443 17.512 48.6683 19.9504 48.6683 22.2352C48.6683 23.3872 48.8987 23.9632 49.3595 23.9632C49.7243 23.9632 50.2331 23.56 50.8859 22.7536C51.5579 21.928 52.2587 20.9008 52.9883 19.672C54.2555 17.56 55.2827 15.7264 56.0699 14.1712C56.7227 12.7888 57.3947 12.0976 58.0859 12.0976C58.4507 12.0976 58.6331 12.3184 58.6331 12.76C58.4603 13.1248 58.2395 13.6432 57.9707 14.3152C57.7019 14.9872 57.3467 16.3216 56.9051 18.3184C56.4635 20.3152 56.2427 22.3024 56.2427 24.28C56.2427 26.2576 56.5403 27.2464 57.1355 27.2464C57.3659 27.2464 57.5771 27.1408 57.7691 26.9296C57.9611 26.7376 58.1339 26.44 58.2875 26.0368C58.3451 25.8256 58.4795 25.72 58.6907 25.72C58.7675 25.72 58.8251 25.7488 58.8635 25.8064C58.9019 25.864 58.9019 25.96 58.8635 26.0944C58.8251 26.2288 58.7579 26.4112 58.6619 26.6416C58.5659 26.8912 58.3547 27.2176 58.0283 27.6208C57.7211 28.024 57.3947 28.2256 57.0491 28.2256C56.2427 28.2256 55.6187 27.6976 55.1771 26.6416C54.7547 25.5856 54.5435 24.3376 54.5435 22.8976C54.5435 21.4576 54.6491 20.0752 54.8603 18.7504H54.5723C52.1339 22.9168 50.3003 25 49.0715 25ZM62.6512 20.3344C65.128 14.2096 67.5376 11.1472 69.88 11.1472C70.8592 11.1472 71.3488 11.6176 71.3488 12.5584C71.2144 13 71.0416 13.5856 70.8304 14.3152C70.6192 15.0256 70.3312 16.312 69.9664 18.1744C69.6208 20.0368 69.448 21.6688 69.448 23.0704C69.448 25.1056 69.7456 26.1232 70.3408 26.1232C70.5712 26.1232 70.792 26.0272 71.0032 25.8352C71.2144 25.6624 71.3584 25.576 71.4352 25.576C71.704 25.576 71.704 25.7872 71.4352 26.2096C71.3392 26.344 71.1568 26.5264 70.888 26.7568C70.6384 26.9872 70.3792 27.1024 70.1104 27.1024C69.3808 27.1024 68.8048 26.5744 68.3824 25.5184C67.9792 24.4816 67.7776 23.128 67.7776 21.4576C67.7776 18.808 68.1904 15.8992 69.016 12.7312C69.0928 12.4816 69.016 12.3568 68.7856 12.3568C68.632 12.3568 68.4592 12.4336 68.2672 12.5872C67.3456 13.3936 66.376 14.728 65.3584 16.5904C64.3408 18.4528 63.544 20.1232 62.968 21.6016C62.392 23.0608 62.104 23.9152 62.104 24.1648C62.104 24.3952 61.9696 24.5104 61.7008 24.5104C61.0864 24.5104 60.7792 23.752 60.7792 22.2352C60.7792 19.3744 61.0672 16.7824 61.6432 14.4592C62.2384 12.136 62.9488 10.9744 63.7744 10.9744C64.12 10.9744 64.2928 11.1856 64.2928 11.608C63.4096 14.4688 62.776 17.3776 62.392 20.3344H62.6512ZM78.1455 10.2832C78.1455 11.6464 78.5487 12.3952 79.3551 12.5296C79.2975 12.7984 79.0767 12.9328 78.6927 12.9328C77.9055 12.9328 77.3487 12.4624 77.0223 11.5216C76.8687 11.08 76.7919 10.5424 76.7919 9.9088C76.7919 9.2752 77.0415 8.5072 77.5407 7.6048C78.6927 5.512 80.8047 4.1584 83.8767 3.544C84.9711 3.3328 86.1711 3.2272 87.4767 3.2272C88.7823 3.2272 89.9631 3.0736 91.0191 2.7664C92.0943 2.4592 92.8815 2.1136 93.3807 1.7296C93.8991 1.3456 94.3791 1 94.8207 0.692801C95.2815 0.385601 95.6559 0.232001 95.9439 0.232001C96.2511 0.232001 96.4047 0.366401 96.4047 0.6352C96.4047 1.2688 95.7807 1.912 94.5327 2.5648C93.2847 3.2176 91.6623 3.64 89.6655 3.832C88.8399 4.2736 88.1967 5.8384 87.7359 8.5264C87.2175 11.6176 86.7855 14.1424 86.4399 16.1008C86.0943 18.0592 85.6815 19.7392 85.2015 21.1408C84.7407 22.5232 84.2127 23.752 83.6175 24.8272C83.0223 25.8832 82.2351 26.728 81.2559 27.3616C80.2959 28.0144 79.1631 28.3408 77.8575 28.3408C76.5711 28.3408 75.5247 27.9184 74.7183 27.0736C73.8351 26.152 73.3935 24.904 73.3935 23.3296C73.3935 20.6992 74.0943 18.6832 75.4959 17.2816C76.3407 16.4368 77.2815 16.0144 78.3183 16.0144C78.5679 16.0144 78.7695 16.072 78.9231 16.1872C79.0959 16.3024 79.2111 16.4752 79.2687 16.7056C77.6367 16.7056 76.3119 17.5504 75.2943 19.24C74.5455 20.488 74.1711 21.784 74.1711 23.128C74.1711 25.336 74.9295 26.68 76.4463 27.16C76.7919 27.2752 77.1663 27.3328 77.5695 27.3328C78.7599 27.3328 79.7967 26.8432 80.6799 25.864C81.5823 24.8848 82.2639 23.6464 82.7247 22.1488C83.2047 20.6512 83.6559 18.9712 84.0783 17.1088C84.5199 15.2272 84.8847 13.4416 85.1727 11.752C85.4607 10.0624 85.8447 8.488 86.3247 7.0288C86.8239 5.5504 87.3903 4.5136 88.0239 3.9184H87.4479C83.5119 3.9184 80.7663 5.0224 79.2111 7.2304C78.5007 8.2288 78.1455 9.2464 78.1455 10.2832ZM97.8972 11.032C99.3564 11.032 100.086 11.8864 100.086 13.5952C100.086 14.5744 99.7596 15.6016 99.1068 16.6768C97.9932 18.4624 96.5148 19.3552 94.6716 19.3552C94.3836 19.3552 94.1436 19.3072 93.9516 19.2112C93.7596 19.1152 93.6156 18.9712 93.5196 18.7792C94.8828 18.7792 96.1308 17.992 97.2636 16.4176C98.1852 15.1504 98.646 13.9888 98.646 12.9328C98.646 12.1456 98.3292 11.752 97.6956 11.752C96.4284 11.752 95.2476 12.7408 94.1532 14.7184C92.982 16.8688 92.3964 19.0768 92.3964 21.3424C92.3964 23.2624 92.9436 24.4144 94.038 24.7984C94.2492 24.8752 94.518 24.9136 94.8444 24.9136C95.1708 24.9136 95.5164 24.8368 95.8812 24.6832C96.246 24.5104 96.5532 24.3088 96.8028 24.0784C97.302 23.6176 97.7148 23.1088 98.0412 22.552C98.118 22.3984 98.262 22.3216 98.4732 22.3216C98.8188 22.3216 98.982 22.3792 98.9628 22.4944C98.9052 22.7056 98.6844 23.0608 98.3004 23.56C97.9356 24.0592 97.59 24.4624 97.2636 24.7696C96.9564 25.0576 96.5436 25.3168 96.0252 25.5472C95.526 25.7968 95.0172 25.9216 94.4988 25.9216C92.4636 25.9216 91.1676 24.9616 90.6108 23.0416C90.438 22.3888 90.3516 21.7168 90.3516 21.0256C90.3516 19.7392 90.6492 18.3376 91.2444 16.8208C92.1852 14.5168 93.4812 12.856 95.1324 11.8384C96.0348 11.3008 96.9564 11.032 97.8972 11.032ZM103.986 25C102.411 25 101.624 23.7616 101.624 21.2848C101.624 19.8064 101.989 18.184 102.718 16.4176C103.736 13.9408 105.07 12.2512 106.722 11.3488C107.432 10.9648 108.094 10.7728 108.709 10.7728C109.323 10.7728 109.803 10.9072 110.149 11.176C110.514 11.4448 110.744 11.7136 110.84 11.9824L111.013 12.3568C110.955 12.6832 110.792 12.8464 110.523 12.8464C110.216 12.8464 110.034 12.7792 109.976 12.6448C109.938 12.4912 109.89 12.3664 109.832 12.2704C109.774 12.1552 109.64 12.0112 109.429 11.8384C109.218 11.6464 108.978 11.5504 108.709 11.5504C107.461 11.5504 106.328 12.6736 105.31 14.92C104.158 17.512 103.582 19.9504 103.582 22.2352C103.582 23.3872 103.813 23.9632 104.274 23.9632C104.638 23.9632 105.147 23.56 105.8 22.7536C106.472 21.928 107.173 20.9008 107.902 19.672C109.17 17.56 110.197 15.7264 110.984 14.1712C111.637 12.7888 112.309 12.0976 113 12.0976C113.365 12.0976 113.547 12.3184 113.547 12.76C113.374 13.1248 113.154 13.6432 112.885 14.3152C112.616 14.9872 112.261 16.3216 111.819 18.3184C111.378 20.3152 111.157 22.3024 111.157 24.28C111.157 26.2576 111.454 27.2464 112.05 27.2464C112.28 27.2464 112.491 27.1408 112.683 26.9296C112.875 26.7376 113.048 26.44 113.202 26.0368C113.259 25.8256 113.394 25.72 113.605 25.72C113.682 25.72 113.739 25.7488 113.778 25.8064C113.816 25.864 113.816 25.96 113.778 26.0944C113.739 26.2288 113.672 26.4112 113.576 26.6416C113.48 26.8912 113.269 27.2176 112.942 27.6208C112.635 28.024 112.309 28.2256 111.963 28.2256C111.157 28.2256 110.533 27.6976 110.091 26.6416C109.669 25.5856 109.458 24.3376 109.458 22.8976C109.458 21.4576 109.563 20.0752 109.774 18.7504H109.486C107.048 22.9168 105.214 25 103.986 25ZM122.404 21.4864C122.404 19.1248 122.836 16.1392 123.7 12.5296C123.757 12.3376 123.7 12.2512 123.527 12.2704C123.392 12.2896 123.268 12.3472 123.152 12.4432C122.308 13.1536 121.376 14.4688 120.359 16.3888C119.341 18.3088 118.525 20.0656 117.911 21.6592C117.296 23.2336 116.989 24.1552 116.989 24.424C116.989 24.6544 116.845 24.7696 116.557 24.7696C115.981 24.7696 115.693 24.0112 115.693 22.4944C115.693 19.6144 115.981 17.0224 116.557 14.7184C117.133 12.3952 117.834 11.2336 118.66 11.2336C119.024 11.2336 119.207 11.4352 119.207 11.8384C118.324 14.6224 117.69 17.4832 117.306 20.4208H117.565C120.1 14.0848 122.432 10.9168 124.564 10.9168C125.485 10.9168 125.946 11.368 125.946 12.2704C125.044 14.9584 124.391 17.608 123.988 20.2192H124.218C124.852 18.8752 125.485 17.656 126.119 16.5616C126.772 15.448 127.53 14.4208 128.394 13.48C129.258 12.52 130.036 12.04 130.727 12.04C131.648 12.04 132.109 12.4816 132.109 13.3648C131.111 16.6864 130.612 19.9216 130.612 23.0704C130.612 25.1056 130.919 26.1232 131.533 26.1232C131.744 26.1232 131.956 26.0272 132.167 25.8352C132.378 25.6624 132.522 25.576 132.599 25.576C132.868 25.576 132.858 25.7872 132.57 26.2096C132.493 26.344 132.32 26.5264 132.052 26.7568C131.802 26.9872 131.552 27.1024 131.303 27.1024C130.554 27.1024 129.968 26.5744 129.546 25.5184C129.143 24.4816 128.941 23.128 128.941 21.4576C128.941 18.52 129.248 15.9376 129.863 13.7104C129.901 13.576 129.853 13.5088 129.719 13.5088C129.604 13.528 129.488 13.5856 129.373 13.6816C128.279 14.6224 127.06 16.3696 125.716 18.9232C124.372 21.4576 123.7 22.9552 123.7 23.416C123.7 23.6464 123.546 23.7616 123.239 23.7616C122.682 23.7616 122.404 23.0032 122.404 21.4864ZM135.285 23.5024C135.285 22.6768 136.063 21.6688 137.618 20.4784C139.173 19.2688 140.719 18.5872 142.255 18.4336C140.969 17.8576 139.778 16.936 138.684 15.6688C137.609 14.3824 137.071 13.2976 137.071 12.4144C137.071 12.1264 137.138 11.8768 137.273 11.6656C137.407 11.4544 137.609 11.272 137.877 11.1184C137.877 12.52 138.722 13.9984 140.412 15.5536C142.101 17.0896 143.973 17.8576 146.028 17.8576C145.97 18.088 145.759 18.328 145.394 18.5776C145.029 18.808 144.636 18.9232 144.213 18.9232C142.869 18.9232 141.545 19.2688 140.239 19.96C138.953 20.6512 137.935 21.4576 137.186 22.3792C136.457 23.3008 136.092 24.136 136.092 24.8848C135.9 24.8272 135.717 24.6736 135.545 24.424C135.372 24.1552 135.285 23.848 135.285 23.5024Z" fill="#FBF7F7"/>
</svg>
