<svg width="128" height="28" viewBox="0 0 128 28" fill="none" xmlns="http://www.w3.org/2000/svg">
<path d="M11.0016 10.472C11.0016 11.2976 10.2144 12.3152 8.64 13.5248C7.0848 14.7152 5.5488 15.3872 4.032 15.5408C5.3184 16.1168 6.4992 17.048 7.5744 18.3344C8.6688 19.6016 9.216 20.6768 9.216 21.56C9.216 21.848 9.1488 22.1072 9.0144 22.3376C8.88 22.5488 8.6688 22.7312 8.3808 22.8848C8.3808 21.4832 7.536 20.0048 5.8464 18.4496C4.1568 16.8944 2.2944 16.1168 0.2592 16.1168C0.3168 15.8672 0.5184 15.6272 0.864 15.3968C1.2288 15.1664 1.6224 15.0512 2.0448 15.0512C4.0608 15.0512 5.9136 14.36 7.6032 12.9776C9.312 11.5952 10.1664 10.3088 10.1664 9.1184C10.224 9.1376 10.3008 9.1664 10.3968 9.2048C10.4928 9.2432 10.6176 9.3776 10.7712 9.608C10.9248 9.8384 11.0016 10.1264 11.0016 10.472ZM34.0545 3.3584C34.0545 2.1872 33.5841 1.6016 32.6433 1.6016C31.6449 1.6016 30.5889 2.2928 29.4753 3.6752C28.3809 5.0384 27.4113 6.6992 26.5665 8.6576C25.7217 10.5968 24.9441 12.584 24.2337 14.6192C23.5425 16.6352 23.0049 18.344 22.6209 19.7456C22.2369 21.128 22.0449 21.9056 22.0449 22.0784C22.0449 22.328 21.9105 22.4528 21.6417 22.4528C21.0657 22.4528 20.7777 21.6848 20.7777 20.1488C20.7777 16.4432 21.1905 12.8432 22.0161 9.3488C22.8609 5.8544 23.7921 3.5216 24.8097 2.3504C22.0641 2.7344 19.8369 3.704 18.1281 5.2592C17.1489 6.1232 16.6593 7.064 16.6593 8.0816C16.6593 8.5808 16.8513 8.8304 17.2353 8.8304C17.1585 9.0992 16.9473 9.2336 16.6017 9.2336C16.2561 9.2336 15.9489 9.0992 15.6801 8.8304C15.4305 8.5616 15.3057 8.1872 15.3057 7.7072C15.3057 6.5744 15.9873 5.528 17.3505 4.568C18.7329 3.5888 20.2209 2.8688 21.8145 2.408C23.4081 1.928 24.7617 1.688 25.8753 1.688C26.1825 1.688 26.3361 1.8416 26.3361 2.1488C24.9921 5.2592 23.8497 9.5984 22.9089 15.1664H23.1105C23.9553 12.3824 24.8289 10.0688 25.7313 8.2256C26.6337 6.3632 27.4209 4.9616 28.0929 4.0208C28.7649 3.0608 29.5041 2.2736 30.3105 1.6592C31.1361 1.0448 31.9617 0.737601 32.7873 0.737601C34.4769 0.737601 35.4849 1.4672 35.8113 2.9264C35.8881 3.2528 35.9265 3.5984 35.9265 3.9632C35.9265 5.1344 35.5233 6.4112 34.7169 7.7936C33.5649 9.7712 32.0193 11.1536 30.0801 11.9408L28.9857 12.2864C29.5425 12.344 30.1281 13.1024 30.7425 14.5616C31.3761 16.0016 31.9329 17.5856 32.4129 19.3136C32.8929 21.0224 33.4689 22.5872 34.1409 24.008C34.8129 25.4288 35.4753 26.1392 36.1281 26.1392C36.6465 26.1392 37.0305 25.9568 37.2801 25.592C37.4145 25.592 37.4817 25.64 37.4817 25.736C37.4817 25.832 37.4241 25.9664 37.3089 26.1392C36.8865 26.7152 36.3681 27.032 35.7537 27.0896C34.7553 27.0896 33.7857 26.408 32.8449 25.0448C31.9233 23.6816 31.1745 22.1744 30.5985 20.5232C30.0225 18.8528 29.4081 17.192 28.7553 15.5408C28.1217 13.8896 27.5841 12.872 27.1425 12.488C26.9313 12.488 26.7585 12.4304 26.6241 12.3152C26.5089 12.1808 26.4417 11.9792 26.4225 11.7104C28.4577 11.7104 30.2817 10.6928 31.8945 8.6576C33.3345 6.8336 34.0545 5.0672 34.0545 3.3584ZM46.5658 25.16C46.7962 25.16 47.0074 25.0544 47.1994 24.8432C47.4106 24.6512 47.6026 24.344 47.7754 23.9216C47.7946 23.7488 47.9098 23.6624 48.121 23.6624C48.3322 23.6624 48.409 23.7488 48.3514 23.9216C48.313 24.0944 48.2362 24.3056 48.121 24.5552C48.025 24.8048 47.8042 25.1312 47.4586 25.5344C47.1322 25.9568 46.7962 26.168 46.4506 26.168C45.6826 26.168 45.0874 25.688 44.665 24.728C44.2234 23.768 44.0026 22.5872 44.0026 21.1856C44.0026 19.7648 44.1082 18.3056 44.3194 16.808H44.0602C41.737 20.8592 39.9514 22.8848 38.7034 22.8848C37.225 22.8848 36.4858 21.7616 36.4858 19.5152C36.4858 17.2496 36.9658 14.9936 37.9258 12.7472C38.9818 10.2704 39.913 9.032 40.7194 9.032C41.065 9.032 41.2378 9.2432 41.2378 9.6656C40.4314 11.7968 39.7402 13.8704 39.1642 15.8864C38.5882 17.9024 38.3002 19.4096 38.3002 20.408C38.3002 21.3872 38.5306 21.8768 38.9914 21.8768C39.3178 21.8768 39.7978 21.4832 40.4314 20.696C41.0842 19.9088 41.7466 18.9488 42.4186 17.816C43.8586 15.3776 44.953 13.304 45.7018 11.5952C46.4698 9.8864 47.257 9.032 48.0634 9.032C48.4474 9.032 48.6394 9.2432 48.6394 9.6656C47.4106 12.104 46.537 15.0128 46.0186 18.392C45.8074 19.736 45.7018 21.0512 45.7018 22.3376C45.7018 24.2192 45.9898 25.16 46.5658 25.16ZM52.2064 22.0208C52.2064 23.3648 52.6384 24.0368 53.5024 24.0368C54.3088 24.0368 55.0576 23.3744 55.7488 22.0496C56.4592 20.7248 56.8144 19.0544 56.8144 17.0384C56.8144 16.0592 56.632 14.6768 56.2672 12.8912C55.9216 11.1056 55.7488 9.944 55.7488 9.4064C55.7488 8.8496 55.768 8.4848 55.8064 8.312C55.5568 8.7152 54.8368 10.0592 53.6464 12.344C52.456 14.6096 51.4 16.4048 50.4784 17.7296C50.4016 17.8064 50.296 17.8352 50.1616 17.816C50.0272 17.7776 49.9216 17.72 49.8448 17.6432C49.7488 17.5472 49.7008 17.48 49.7008 17.4416C49.7008 17.4032 49.7104 17.3744 49.7296 17.3552C50.632 16.0496 51.6784 14.2544 52.8688 11.9696C54.0784 9.6656 55.0864 7.9472 55.8928 6.8144C56.6992 5.6816 57.496 5.1152 58.2832 5.1152C58.6864 5.1152 58.888 5.288 58.888 5.6336C58.888 5.864 58.7248 6.1712 58.3984 6.5552C57.3616 7.7264 56.8432 8.9264 56.8432 10.1552C56.8432 10.8848 57.1216 12.296 57.6784 14.3888C58.2352 16.4624 58.5136 17.9696 58.5136 18.9104C58.5136 20.6 58.0432 22.0304 57.1024 23.2016C56.1616 24.392 55.096 24.9872 53.9056 24.9872C52.216 24.9872 51.3712 24.0176 51.3712 22.0784C51.3712 20.6192 51.8128 19.0928 52.696 17.4992C53.5984 15.9056 54.5008 14.8304 55.4032 14.2736C55.576 14.1584 55.6816 14.2256 55.72 14.4752C55.7776 14.7248 55.7488 14.888 55.6336 14.9648C54.616 15.5408 53.7328 16.7696 52.984 18.6512C52.4656 19.976 52.2064 21.0992 52.2064 22.0208ZM62.7304 10.5296C61.9816 10.5296 61.6072 10.2224 61.6072 9.608C61.6072 9.3776 61.7032 9.2336 61.8953 9.176C61.9144 9.1568 61.9432 9.1472 61.9816 9.1472C62.0968 9.2816 62.308 9.3488 62.6152 9.3488C62.9416 9.3488 63.4504 9.3296 64.1416 9.2912C65.044 6.8528 65.908 5.6336 66.7336 5.6336C67.06 5.6336 67.2232 5.816 67.2232 6.1808C66.916 6.9488 66.5704 7.9376 66.1864 9.1472C68.0872 8.936 69.3256 8.8304 69.9016 8.8304C70.0552 8.8304 70.132 8.9072 70.132 9.0608C70.132 9.368 69.9304 9.5216 69.5273 9.5216C69.3161 9.5216 68.0968 9.7232 65.8696 10.1264C64.3528 14.9264 63.5944 18.8144 63.5944 21.7904C63.5944 24.7664 64.1896 26.2544 65.38 26.2544C65.86 26.2544 66.3112 26.0432 66.7336 25.6208C67.156 25.2176 67.4536 24.8144 67.6265 24.4112C67.7032 24.2 67.8664 24.1424 68.116 24.2384C68.2312 24.2768 68.2696 24.3344 68.2312 24.4112C68.116 24.6608 67.972 24.9488 67.7992 25.2752C67.6264 25.6016 67.2904 26.0048 66.7912 26.4848C66.2921 26.9648 65.7832 27.2048 65.2648 27.2048C62.98 27.2048 61.8376 25.2176 61.8376 21.2432C61.8376 17.8832 62.4616 14.2928 63.7097 10.472C63.4408 10.5104 63.1144 10.5296 62.7304 10.5296ZM70.1121 20.552C70.1121 17.7104 70.4001 15.176 70.9761 12.9488C71.5713 10.7216 72.3201 9.608 73.2225 9.608C73.6641 9.608 73.8849 9.848 73.8849 10.328C73.6929 10.8272 73.4529 11.4896 73.1649 12.3152C72.8769 13.1408 72.4929 14.6384 72.0129 16.808C71.5521 18.9584 71.3217 20.8784 71.3217 22.568C71.3217 22.8368 71.1777 22.9712 70.8897 22.9712C70.3713 22.9712 70.1121 22.1648 70.1121 20.552ZM73.9713 6.9008C73.5681 6.9008 73.3665 6.5168 73.3665 5.7488C73.3665 5.288 73.4913 4.808 73.7409 4.3088C73.9905 3.7904 74.3457 3.5312 74.8065 3.5312C75.1905 3.5312 75.3825 3.752 75.3825 4.1936C75.3825 4.6352 75.0273 5.3744 74.3169 6.4112L73.9713 6.9008ZM84.5266 14.0432C85.1602 13.0256 85.477 12.0752 85.477 11.192C85.477 10.2896 85.1986 9.8384 84.6418 9.8384C83.9698 9.8384 83.2018 10.4336 82.3378 11.624C81.493 12.7952 80.7346 14.1296 80.0626 15.6272C79.4098 17.1248 78.853 18.5168 78.3922 19.8032C77.9314 21.0704 77.7011 21.8384 77.7011 22.1072C77.6818 22.3376 77.5474 22.4528 77.2978 22.4528C76.7218 22.4528 76.4338 21.6848 76.4338 20.1488C76.4338 17.096 76.741 14.0336 77.3554 10.9616C77.9698 7.8704 78.6994 5.4032 79.5442 3.56C80.389 1.6976 81.1762 0.766401 81.9058 0.766401C82.213 0.766401 82.3666 0.920001 82.3666 1.2272C81.349 3.4736 80.4658 6.2096 79.717 9.4352C79.1026 11.9312 78.5843 14.6096 78.1619 17.4704H78.3922C80.581 11.8448 82.7698 9.032 84.9586 9.032C86.3218 9.032 87.0035 9.8096 87.0035 11.3648C87.0035 12.3632 86.629 13.4192 85.8802 14.5328C85.1506 15.6464 84.2194 16.3856 83.0866 16.7504C83.317 16.9616 83.7874 18.2768 84.4979 20.696C84.7474 21.56 85.093 22.3472 85.5346 23.0576C85.9762 23.768 86.4466 24.1232 86.9459 24.1232C87.4642 24.1232 87.8482 23.9408 88.0978 23.576C88.213 23.576 88.2707 23.624 88.2707 23.72C88.2707 23.816 88.2226 23.96 88.1266 24.152C87.7042 24.728 87.1858 25.0448 86.5715 25.1024C85.7842 25.1024 85.045 24.6992 84.3538 23.8928C83.6626 23.0864 83.125 22.2032 82.741 21.2432C82.357 20.2832 81.9922 19.3328 81.6467 18.392C81.3202 17.432 81.1186 16.8944 81.0418 16.7792C80.9074 16.6832 80.821 16.568 80.7826 16.4336C82.2994 16.4336 83.5474 15.6368 84.5266 14.0432ZM97.6751 14.0432C98.3087 13.0256 98.6255 12.0752 98.6255 11.192C98.6255 10.2896 98.3471 9.8384 97.7903 9.8384C97.1183 9.8384 96.3503 10.4336 95.4863 11.624C94.6415 12.7952 93.8831 14.1296 93.2111 15.6272C92.5583 17.1248 92.0015 18.5168 91.5407 19.8032C91.0799 21.0704 90.8495 21.8384 90.8495 22.1072C90.8303 22.3376 90.6959 22.4528 90.4463 22.4528C89.8703 22.4528 89.5823 21.6848 89.5823 20.1488C89.5823 17.096 89.8895 14.0336 90.5039 10.9616C91.1183 7.8704 91.8479 5.4032 92.6927 3.56C93.5375 1.6976 94.3247 0.766401 95.0543 0.766401C95.3615 0.766401 95.5151 0.920001 95.5151 1.2272C94.4975 3.4736 93.6143 6.2096 92.8655 9.4352C92.2511 11.9312 91.7327 14.6096 91.3103 17.4704H91.5407C93.7295 11.8448 95.9183 9.032 98.1071 9.032C99.4703 9.032 100.152 9.8096 100.152 11.3648C100.152 12.3632 99.7775 13.4192 99.0287 14.5328C98.2991 15.6464 97.3679 16.3856 96.2351 16.7504C96.4655 16.9616 96.9359 18.2768 97.6463 20.696C97.8959 21.56 98.2415 22.3472 98.6831 23.0576C99.1247 23.768 99.5951 24.1232 100.094 24.1232C100.613 24.1232 100.997 23.9408 101.246 23.576C101.361 23.576 101.419 23.624 101.419 23.72C101.419 23.816 101.371 23.96 101.275 24.152C100.853 24.728 100.334 25.0448 99.7199 25.1024C98.9327 25.1024 98.1935 24.6992 97.5023 23.8928C96.8111 23.0864 96.2735 22.2032 95.8895 21.2432C95.5055 20.2832 95.1407 19.3328 94.7951 18.392C94.4687 17.432 94.2671 16.8944 94.1903 16.7792C94.0559 16.6832 93.9695 16.568 93.9311 16.4336C95.4479 16.4336 96.6959 15.6368 97.6751 14.0432ZM104.372 23C102.798 23 102.011 21.7616 102.011 19.2848C102.011 17.8064 102.376 16.184 103.105 14.4176C104.123 11.9408 105.457 10.2512 107.108 9.3488C107.819 8.9648 108.481 8.7728 109.096 8.7728C109.71 8.7728 110.19 8.9072 110.536 9.176C110.9 9.4448 111.131 9.7136 111.227 9.9824L111.4 10.3568C111.342 10.6832 111.179 10.8464 110.91 10.8464C110.603 10.8464 110.42 10.7792 110.363 10.6448C110.324 10.4912 110.276 10.3664 110.219 10.2704C110.161 10.1552 110.027 10.0112 109.816 9.8384C109.604 9.6464 109.364 9.5504 109.096 9.5504C107.848 9.5504 106.715 10.6736 105.697 12.92C104.545 15.512 103.969 17.9504 103.969 20.2352C103.969 21.3872 104.2 21.9632 104.66 21.9632C105.025 21.9632 105.534 21.56 106.187 20.7536C106.859 19.928 107.56 18.9008 108.289 17.672C109.556 15.56 110.584 13.7264 111.371 12.1712C112.024 10.7888 112.696 10.0976 113.387 10.0976C113.752 10.0976 113.934 10.3184 113.934 10.76C113.761 11.1248 113.54 11.6432 113.272 12.3152C113.003 12.9872 112.648 14.3216 112.206 16.3184C111.764 18.3152 111.544 20.3024 111.544 22.28C111.544 24.2576 111.841 25.2464 112.436 25.2464C112.667 25.2464 112.878 25.1408 113.07 24.9296C113.262 24.7376 113.435 24.44 113.588 24.0368C113.646 23.8256 113.78 23.72 113.992 23.72C114.068 23.72 114.126 23.7488 114.164 23.8064C114.203 23.864 114.203 23.96 114.164 24.0944C114.126 24.2288 114.059 24.4112 113.963 24.6416C113.867 24.8912 113.656 25.2176 113.329 25.6208C113.022 26.024 112.696 26.2256 112.35 26.2256C111.544 26.2256 110.92 25.6976 110.478 24.6416C110.056 23.5856 109.844 22.3376 109.844 20.8976C109.844 19.4576 109.95 18.0752 110.161 16.7504H109.873C107.435 20.9168 105.601 23 104.372 23ZM116.512 21.5024C116.512 20.6768 117.29 19.6688 118.845 18.4784C120.4 17.2688 121.946 16.5872 123.482 16.4336C122.195 15.8576 121.005 14.936 119.91 13.6688C118.835 12.3824 118.298 11.2976 118.298 10.4144C118.298 10.1264 118.365 9.8768 118.499 9.6656C118.634 9.4544 118.835 9.272 119.104 9.1184C119.104 10.52 119.949 11.9984 121.638 13.5536C123.328 15.0896 125.2 15.8576 127.254 15.8576C127.197 16.088 126.986 16.328 126.621 16.5776C126.256 16.808 125.862 16.9232 125.44 16.9232C124.096 16.9232 122.771 17.2688 121.466 17.96C120.179 18.6512 119.162 19.4576 118.413 20.3792C117.683 21.3008 117.318 22.136 117.318 22.8848C117.126 22.8272 116.944 22.6736 116.771 22.424C116.598 22.1552 116.512 21.848 116.512 21.5024Z" fill="#FBF7F7"/>
</svg>
