<?xml version="1.0" encoding="UTF-8"?>
<svg xmlns="http://www.w3.org/2000/svg" xmlns:xlink="http://www.w3.org/1999/xlink" width="600px" height="600px" viewBox="0 0 600 600" version="1.1">
<g id="surface1">
<path style=" stroke:none;fill-rule:nonzero;fill:rgb(0%,0%,0%);fill-opacity:1;" d="M 554.089844 526.773438 L 449.535156 422.199219 C 448.871094 421.535156 448.019531 421.238281 447.296875 420.703125 C 481.710938 380.355469 502.597656 328.109375 502.597656 270.925781 C 502.597656 143.339844 399.132812 39.859375 271.53125 39.859375 C 143.929688 39.859375 40.46875 143.339844 40.46875 270.925781 C 40.46875 291.308594 43.371094 310.957031 48.324219 329.789062 C 54.3125 320.660156 69.832031 299.105469 79.113281 295.082031 C 78.117188 287.152344 77.449219 279.128906 77.449219 270.925781 C 77.449219 163.746094 164.355469 76.824219 271.550781 76.824219 C 378.746094 76.824219 465.652344 163.746094 465.652344 270.925781 C 465.652344 355.164062 411.886719 426.671875 336.902344 453.527344 C 333.335938 468.738281 327.570312 483.246094 319.714844 496.738281 C 358.175781 488.53125 393.144531 470.902344 421.921875 446.171875 C 422.457031 446.875 422.753906 447.722656 423.402344 448.390625 L 527.972656 552.90625 C 535.199219 560.167969 546.878906 560.167969 554.105469 552.90625 C 561.332031 545.714844 561.332031 534 554.089844 526.773438 Z M 281.496094 317.203125 C 254.878906 290.589844 219.484375 275.933594 181.820312 275.933594 C 144.152344 275.933594 108.777344 290.589844 82.164062 317.203125 C 55.53125 343.816406 40.875 379.210938 40.875 416.878906 C 40.875 454.542969 55.53125 489.917969 82.164062 516.550781 C 108.796875 543.183594 144.191406 557.839844 181.839844 557.839844 C 181.839844 557.839844 181.839844 557.839844 181.855469 557.839844 C 219.503906 557.839844 254.898438 543.164062 281.511719 516.550781 C 308.128906 489.957031 322.785156 454.542969 322.785156 416.878906 C 322.765625 379.230469 308.109375 343.835938 281.496094 317.203125 Z M 255.359375 490.417969 C 235.714844 510.066406 209.597656 520.875 181.839844 520.875 C 154.058594 520.875 127.925781 510.046875 108.296875 490.417969 C 88.652344 470.769531 77.839844 444.65625 77.839844 416.878906 C 77.839844 389.097656 88.652344 362.984375 108.296875 343.339844 C 127.945312 323.691406 154.042969 312.898438 181.820312 312.898438 C 209.597656 312.898438 235.714844 323.710938 255.359375 343.339844 C 275.007812 362.984375 285.820312 389.097656 285.820312 416.878906 C 285.820312 444.675781 275.007812 470.773438 255.359375 490.417969 Z M 246.617188 352.097656 C 239.390625 344.871094 227.710938 344.871094 220.484375 352.097656 L 181.820312 390.761719 L 143.15625 352.097656 C 135.929688 344.871094 124.246094 344.871094 117.019531 352.097656 C 109.792969 359.324219 109.792969 371.003906 117.019531 378.230469 L 155.683594 416.894531 L 117.019531 455.558594 C 109.792969 462.785156 109.792969 474.46875 117.019531 481.695312 C 120.625 485.296875 125.355469 487.109375 130.085938 487.109375 C 134.820312 487.109375 139.550781 485.296875 143.15625 481.695312 L 181.820312 443.03125 L 220.484375 481.695312 C 224.089844 485.296875 228.820312 487.109375 233.550781 487.109375 C 238.28125 487.109375 243.015625 485.296875 246.617188 481.695312 C 253.84375 474.46875 253.84375 462.785156 246.617188 455.558594 L 207.953125 416.894531 L 246.617188 378.230469 C 253.828125 371.023438 253.828125 359.324219 246.617188 352.097656 Z M 246.617188 352.097656 "/>
</g>
</svg>
